<svg version="1.1" class="has-solid " viewBox="0 0 36 36" preserveAspectRatio="xMidYMid meet" xmlns="http://www.w3.org/2000/svg" xmlns:xlink="http://www.w3.org/1999/xlink" focusable="false" aria-hidden="true" role="img" width="32" height="32" fill="#28bd14"><path class="clr-i-outline clr-i-outline-path-1" d="M18,2A16,16,0,1,0,34,18,16,16,0,0,0,18,2Zm0,30A14,14,0,1,1,32,18,14,14,0,0,1,18,32Z"/><path class="clr-i-outline clr-i-outline-path-2" d="M28,12.1a1,1,0,0,0-1.41,0L15.49,23.15l-6-6A1,1,0,0,0,8,18.53L15.49,26,28,13.52A1,1,0,0,0,28,12.1Z"/><path class="clr-i-solid clr-i-solid-path-1" d="M18,2A16,16,0,1,0,34,18,16,16,0,0,0,18,2ZM28.45,12.63,15.31,25.76,7.55,18a1.4,1.4,0,0,1,2-2l5.78,5.78L26.47,10.65a1.4,1.4,0,1,1,2,2Z" style="display:none"/></svg>